# xmcd
#
# Track frame offsets:
#	150
#	13165
#	29092
#	45398
#	60410
#	75636
#	92414
#	109029
#	124073
#	145593
#	165778
#	181484
#	199915
#	215536
#	228116
#	243847
#	270513
#
# Disc length: 4440 seconds
#
# Revision: 0
# Processed by: cddbd v1.5.1PL0 Copyright (c) Steve Scherf et al.
# Submitted via: audiograbber 1.83.01
#
DISCID=d4115611
DTITLE=Centre Of Music - Country Music Festival CD1
DYEAR=1900
DGENRE=Country
TTITLE0=Suzy Bogguss - Outbound Plane
TTITLE1=Trace Adkins - There`s A Girl In Texas
TTITLE2=LeAnn Rimes - You Light Up My Life
TTITLE3=Asleep Ac The Wheel - Lay Down Sally
TTITLE4=Desna Carter - We Danced Anyway
TTITLE5=John Berry - If I Had Any Pride Left At All
TTITLE6=Jo Dee Messina - Stand Beside Me
TTITLE7=Billy Dean - Somewhere In Me Broken Heart
TTITLE8=Patty Loveles - Like Water Into Wine
TTITLE9=Steve Wariner - Two Teardrops
TTITLE10=Tanya Tucker - Down To My Last Teardrop
TTITLE11=George Ducas - Lipstick Promises
TTITLE12=Sherrie´ Austin - Lucky In Love
TTITLE13=Chris LeDoux - He Rides The Wild Horses
TTITLE14=Slow Horses - Shelter
TTITLE15=Highway - You Baby You
TTITLE16=Daten - CD
EXTD=
EXTT0=
EXTT1=
EXTT2=
EXTT3=
EXTT4=
EXTT5=
EXTT6=
EXTT7=
EXTT8=
EXTT9=
EXTT10=
EXTT11=
EXTT12=
EXTT13=
EXTT14=
EXTT15=
EXTT16=
PLAYORDER=
